<svg xmlns="http://www.w3.org/2000/svg" width="22.302" height="22.183" viewBox="0 0 22.302 22.183">
  <path id="facebook" d="M546.515,705.689v1.7c-.083.314-.086.64-.14.958a11.174,11.174,0,0,1-9.095,9.166c-.157.027-.177-.012-.177-.152q0-3.713,0-7.427c0-.174.058-.2.21-.2.726.007,1.452,0,2.178.008.179,0,.229-.055.253-.221q.2-1.4.432-2.794c.029-.176,0-.219-.18-.217-.9.009-1.8,0-2.7,0-.1,0-.195.021-.192-.146.012-.7-.007-1.394.016-2.09a1.523,1.523,0,0,1,1.425-1.563,13.963,13.963,0,0,1,1.609-.032c.118,0,.182-.01.18-.159-.008-.813-.005-1.626,0-2.439,0-.1-.025-.151-.137-.167a11.48,11.48,0,0,0-3.163-.148,3.722,3.722,0,0,0-2.409,1.222,4.275,4.275,0,0,0-1,2.833c-.019.827-.01,1.655,0,2.483,0,.178-.054.212-.219.211-.806-.008-1.612,0-2.417-.008-.162,0-.206.039-.2.2.008.936.01,1.873,0,2.81,0,.193.062.221.233.219.806-.009,1.612,0,2.417-.006.129,0,.19.016.19.172q-.008,3.735,0,7.471c0,.117-.012.163-.153.137a11.166,11.166,0,0,1-9.17-12.378,10.677,10.677,0,0,1,3.341-6.669,11.053,11.053,0,0,1,12.971-1.792,10.879,10.879,0,0,1,5.733,7.881C546.417,704.934,546.459,705.313,546.515,705.689Z" transform="translate(-524.214 -695.341)" fill="#fff"/>
</svg>
