<svg xmlns="http://www.w3.org/2000/svg" width="97.568" height="125.132" viewBox="0 0 97.568 125.132">
  <g id="icone_tasse" transform="translate(-1260.63 -57.802)">
    <g id="Groupe_102" data-name="Groupe 102">
      <path id="Tracé_110" data-name="Tracé 110" d="M1303.09,93.008l-.02-.018a2,2,0,0,1-.321-2.628c2.017-2.976,5.613-10.09-.915-16.073-3.421-3.137-5.008-6.4-4.715-9.7a10.233,10.233,0,0,1,3.109-6.2,2,2,0,0,1,3.1.339h0a2.009,2.009,0,0,1-.286,2.5,6.257,6.257,0,0,0-1.941,3.742c-.166,1.985.989,4.128,3.436,6.37,7.945,7.283,4.981,16.312,1.507,21.331A1.991,1.991,0,0,1,1303.09,93.008Z" fill="#ff5127"/>
    </g>
    <g id="Groupe_103" data-name="Groupe 103">
      <path id="Tracé_111" data-name="Tracé 111" d="M1285.691,96.962l-.056-.05a1.975,1.975,0,0,1-.343-2.543c1.346-2.138,3.074-6.318-.85-9.916-2.522-2.312-3.689-4.746-3.469-7.234a7.435,7.435,0,0,1,1.865-4.19,1.952,1.952,0,0,1,3.111.27l.915,1.444-1.07-1.689.194.3a1.961,1.961,0,0,1-.158,2.334,3.44,3.44,0,0,0-.873,1.9c-.119,1.467,1.124,2.937,2.188,3.912,5.524,5.064,3.873,11.257,1.528,15.009A1.972,1.972,0,0,1,1285.691,96.962Z" fill="#ff5127"/>
    </g>
    <g id="Groupe_104" data-name="Groupe 104">
      <path id="Tracé_112" data-name="Tracé 112" d="M1310.213,182.934h-29.89a19.714,19.714,0,0,1-19.693-19.693V102.795a2,2,0,0,1,2-2h65.276a2,2,0,0,1,2,2v60.446A19.715,19.715,0,0,1,1310.213,182.934Zm-45.583-78.139v58.446a15.711,15.711,0,0,0,15.693,15.693h29.89a15.711,15.711,0,0,0,15.693-15.693V104.795Z" fill="#ff5127"/>
    </g>
    <g id="Groupe_105" data-name="Groupe 105">
      <path id="Tracé_113" data-name="Tracé 113" d="M1328.92,163.5l-1.807-3.568c.185-.094,18.618-9.555,24.816-22.77,3.01-6.416,3.022-12.795.032-17.5a10.721,10.721,0,0,0-9.082-5.257c-8.543,0-13.149,6.82-13.194,6.889l-3.338-2.205c.235-.355,5.861-8.684,16.532-8.684a14.838,14.838,0,0,1,12.458,7.112c3.739,5.884,3.817,13.664.213,21.345C1348.762,153.335,1329.726,163.094,1328.92,163.5Z" fill="#ff5127"/>
    </g>
    <g id="Groupe_106" data-name="Groupe 106">
      <rect id="Rectangle_13" data-name="Rectangle 13" width="4" height="35.886" rx="2" transform="translate(1272.031 117.739)" fill="#ff5127"/>
    </g>
  </g>
</svg>
