<svg xmlns="http://www.w3.org/2000/svg" width="71.531" height="132.304" viewBox="0 0 71.531 132.304">
  <g id="icone_cocktail" transform="translate(-1539 -63)">
    <path id="Tracé_123" data-name="Tracé 123" d="M1582.954,92.627a1.586,1.586,0,0,0-1.585-1.585h-40.783a1.586,1.586,0,0,0-1.3,2.5l33.89,48.205V170.8A17.476,17.476,0,0,0,1582,186.562l5.046,3.1h-24.156l5.625-3.19a1.586,1.586,0,0,0-1.566-2.759l-10.851,6.156a1.586,1.586,0,0,0,.783,2.965h35.774a1.586,1.586,0,0,0,.83-2.937l-9.827-6.039a14.306,14.306,0,0,1-7.305-13.06V141.244a1.587,1.587,0,0,0-.288-.913l-32.423-46.117h37.73A1.586,1.586,0,0,0,1582.954,92.627Z" transform="translate(0 2.469)" fill="#ff5127"/>
    <path id="Tracé_124" data-name="Tracé 124" d="M1603.252,63.213a1.585,1.585,0,0,0-2.166.581l-3.032,5.251a8.923,8.923,0,0,0-8.783,15.214l-2.124,3.681a1.586,1.586,0,1,0,2.746,1.585l2.13-3.692a8.921,8.921,0,0,0,8.782-15.211l3.028-5.243A1.587,1.587,0,0,0,1603.252,63.213Zm-3.222,17.11a5.765,5.765,0,0,1-10.561-1.391,5.723,5.723,0,0,1,.577-4.375,5.765,5.765,0,1,1,9.984,5.766Z" transform="translate(4.147 0)" fill="#ff5127"/>
    <path id="Tracé_125" data-name="Tracé 125" d="M1607.59,91.9a1.587,1.587,0,0,0-1.411-.862h-19.8a1.588,1.588,0,0,0-1.374.793l-14.376,24.9a1.586,1.586,0,1,0,2.747,1.585l13.918-24.106h15.8l-28.009,39.04a1.586,1.586,0,1,0,2.577,1.849l29.81-41.551A1.586,1.586,0,0,0,1607.59,91.9Z" transform="translate(2.766 2.469)" fill="#ff5127"/>
    <path id="Tracé_126" data-name="Tracé 126" d="M1553.948,100.6a1.585,1.585,0,1,0,0,3.171h21.307a1.585,1.585,0,1,0,0-3.171Z" transform="translate(1.177 3.311)" fill="#ff5127"/>
    <path id="Tracé_127" data-name="Tracé 127" d="M1590.078,103.77a1.585,1.585,0,0,0,0-3.171h-4.487a1.585,1.585,0,1,0,0,3.171Z" transform="translate(3.963 3.311)" fill="#ff5127"/>
  </g>
</svg>
