<svg xmlns="http://www.w3.org/2000/svg" width="119.407" height="118.545" viewBox="0 0 119.407 118.545">
  <g id="icone_micro" transform="translate(-1646.385 -91)">
    <path id="Tracé_128" data-name="Tracé 128" d="M1722.973,149.244a29.122,29.122,0,1,1,29.122-29.122A29.156,29.156,0,0,1,1722.973,149.244Zm0-54.271a25.148,25.148,0,1,0,25.148,25.148A25.176,25.176,0,0,0,1722.973,94.974Z" transform="translate(13.696 0)" fill="#ff5127"/>
    <path id="Tracé_129" data-name="Tracé 129" d="M1661.1,198.748a9.17,9.17,0,0,1-6.5-2.706l-1.908-1.91a9.161,9.161,0,0,1-.6-12.348l54.518-66.217a1.987,1.987,0,0,1,3.068,2.526l-54.518,66.217a5.2,5.2,0,0,0,.339,7.014l1.908,1.908a5.2,5.2,0,0,0,7.013.339l66.217-54.518a1.987,1.987,0,0,1,2.526,3.068l-66.217,54.518A9.183,9.183,0,0,1,1661.1,198.748Z" transform="translate(1.038 6.88)" fill="#ff5127"/>
    <path id="Tracé_130" data-name="Tracé 130" d="M1710.548,148.911a2.019,2.019,0,0,1-.536-.073,32.746,32.746,0,0,1-18.911-13.651,30.786,30.786,0,0,1-4.306-9.665,1.987,1.987,0,0,1,3.891-.81,27.4,27.4,0,0,0,3.824,8.428,28.506,28.506,0,0,0,16.571,11.871,1.987,1.987,0,0,1-.534,3.9Z" transform="translate(11.648 9.271)" fill="#ff5127"/>
    <path id="Tracé_131" data-name="Tracé 131" d="M1648.372,185.369a1.987,1.987,0,0,1-1.406-3.391l6.6-6.605a1.987,1.987,0,1,1,2.809,2.81l-6.6,6.6A1.981,1.981,0,0,1,1648.372,185.369Z" transform="translate(0 24.177)" fill="#ff5127"/>
  </g>
</svg>
