<svg xmlns="http://www.w3.org/2000/svg" width="109.77" height="119.41" viewBox="0 0 109.77 119.41">
  <g id="icone_groupe" transform="translate(-1394.2 -63.5)">
    <g id="Groupe_108" data-name="Groupe 108">
      <path id="Tracé_114" data-name="Tracé 114" d="M1448.46,63.5A19.54,19.54,0,1,0,1468,83.04,19.561,19.561,0,0,0,1448.46,63.5Zm0,34.83a15.29,15.29,0,1,1,15.29-15.29A15.308,15.308,0,0,1,1448.46,98.33Z" fill="#ff5127"/>
    </g>
    <g id="Groupe_109" data-name="Groupe 109">
      <path id="Tracé_115" data-name="Tracé 115" d="M1474.82,118.56v30.9a12.172,12.172,0,0,1-9.51,11.93l-.38.09v19.31a2.125,2.125,0,0,1-4.25,0V132.24a2.125,2.125,0,0,1,4.25,0v24.9l.69-.28a7.977,7.977,0,0,0,4.96-7.4v-30.9a8.006,8.006,0,0,0-7.99-7.99h-28.26a8.006,8.006,0,0,0-7.99,7.99v30.9a7.968,7.968,0,0,0,4.99,7.41l.69.28V132.24a2.125,2.125,0,0,1,4.25,0v48.55a2.125,2.125,0,0,1-4.25,0V161.48l-.39-.09a12.333,12.333,0,0,1-9.54-11.93v-30.9a12.244,12.244,0,0,1,12.24-12.23h28.26A12.242,12.242,0,0,1,1474.82,118.56Z" fill="#ff5127"/>
    </g>
    <g id="Groupe_110" data-name="Groupe 110">
      <path id="Tracé_116" data-name="Tracé 116" d="M1450.58,162.21v18.58a2.12,2.12,0,1,1-4.24,0V162.21a2.12,2.12,0,1,1,4.24,0Z" fill="#ff5127"/>
    </g>
    <g id="Groupe_111" data-name="Groupe 111">
      <path id="Tracé_117" data-name="Tracé 117" d="M1496.96,85.71a19.526,19.526,0,0,1-27.4,15.14,2.056,2.056,0,0,1-1.14-1.32,2.125,2.125,0,0,1,2.03-2.74,2.036,2.036,0,0,1,.83.18,15.3,15.3,0,0,0,21.6-13.69A15.3,15.3,0,0,0,1471.3,69.1a2.126,2.126,0,0,1-1.74-3.88,19.561,19.561,0,0,1,27.4,20.49Z" fill="#ff5127"/>
    </g>
    <g id="Groupe_112" data-name="Groupe 112">
      <path id="Tracé_118" data-name="Tracé 118" d="M1503.97,118.57v30.9a12.331,12.331,0,0,1-9.51,11.92l-.39.09v19.3a2.125,2.125,0,1,1-4.25,0V132.24a2.125,2.125,0,0,1,4.25,0v24.9l.69-.28a7.984,7.984,0,0,0,4.96-7.39v-30.9a8,8,0,0,0-7.99-7.99h-11.51a2.125,2.125,0,0,1,0-4.25h11.51A12.253,12.253,0,0,1,1503.97,118.57Z" fill="#ff5127"/>
    </g>
    <g id="Groupe_113" data-name="Groupe 113">
      <path id="Tracé_119" data-name="Tracé 119" d="M1479.72,162.21v18.58a2.125,2.125,0,0,1-4.25,0V162.21a2.125,2.125,0,1,1,4.25,0Z" fill="#ff5127"/>
    </g>
    <g id="Groupe_114" data-name="Groupe 114">
      <path id="Tracé_120" data-name="Tracé 120" d="M1429.75,99.53a2.084,2.084,0,0,1-1.14,1.32,19.538,19.538,0,1,1-8.04-37.35,19.412,19.412,0,0,1,8.03,1.72,2.113,2.113,0,0,1,1.15,1.33,2.169,2.169,0,0,1-.26,1.77,2.117,2.117,0,0,1-2.63.78,15.307,15.307,0,0,0-21.58,14.18,15.3,15.3,0,0,0,21.61,13.69,2.089,2.089,0,0,1,2.6.79A2.132,2.132,0,0,1,1429.75,99.53Z" fill="#ff5127"/>
    </g>
    <g id="Groupe_115" data-name="Groupe 115">
      <path id="Tracé_121" data-name="Tracé 121" d="M1420.07,108.45a2.138,2.138,0,0,1-2.13,2.13h-11.5a7.994,7.994,0,0,0-7.99,7.99v30.9a7.969,7.969,0,0,0,4.96,7.39l.69.28v-24.9a2.125,2.125,0,0,1,4.25,0v48.54a2.125,2.125,0,1,1-4.25,0v-19.3l-.39-.09a12.331,12.331,0,0,1-9.51-11.92v-30.9a12.253,12.253,0,0,1,12.24-12.24h11.5A2.13,2.13,0,0,1,1420.07,108.45Z" fill="#ff5127"/>
    </g>
    <g id="Groupe_116" data-name="Groupe 116">
      <path id="Tracé_122" data-name="Tracé 122" d="M1422.69,162.21v18.58a2.125,2.125,0,0,1-4.25,0V162.21a2.125,2.125,0,1,1,4.25,0Z" fill="#ff5127"/>
    </g>
  </g>
</svg>
