<svg id="insta" xmlns="http://www.w3.org/2000/svg" width="22.238" height="22.224" viewBox="0 0 22.238 22.224">
  <path id="Tracé_100" data-name="Tracé 100" d="M344.608,749.674a5.712,5.712,0,1,0,5.71,5.71A5.734,5.734,0,0,0,344.608,749.674Zm-.012,9.413a3.7,3.7,0,1,1,3.71-3.694A3.71,3.71,0,0,1,344.6,759.087Z" transform="translate(-333.484 -744.274)" fill="#fff"/>
  <path id="Tracé_101" data-name="Tracé 101" d="M445.753,735.19a1.318,1.318,0,1,1-1.315-1.312A1.314,1.314,0,0,1,445.753,735.19Z" transform="translate(-427.417 -730.038)" fill="#fff"/>
  <path id="Tracé_102" data-name="Tracé 102" d="M306.381,703.145a16.278,16.278,0,0,0-.225-3.111,5.713,5.713,0,0,0-3.577-4.436,8.735,8.735,0,0,0-3.037-.54c-2.412-.087-4.825-.056-7.237-.035a16.142,16.142,0,0,0-3.113.227,5.726,5.726,0,0,0-4.423,3.561,9.185,9.185,0,0,0-.445,1.642c-.034.479-.085.957-.1,1.436-.081,2.769-.078,5.539-.006,8.308a13.635,13.635,0,0,0,.1,1.437,6.24,6.24,0,0,0,1.6,3.6,6.362,6.362,0,0,0,4.342,1.887c1.127.088,2.257.089,3.385.1.1,0,.192-.008.288-.008,1.411,0,2.822.009,4.232-.013a17.281,17.281,0,0,0,3.209-.229,5.71,5.71,0,0,0,4.421-3.562,8.732,8.732,0,0,0,.546-3.058C306.432,707.952,306.4,705.548,306.381,703.145Zm-2.01,5.875a15.555,15.555,0,0,1-.182,2.753,3.846,3.846,0,0,1-3.47,3.28,24.971,24.971,0,0,1-3.168.148c-.761,0-1.523,0-2.284,0-1.467,0-2.934.023-4.4-.052a5.989,5.989,0,0,1-2.448-.528,3.753,3.753,0,0,1-2.033-2.812,15.114,15.114,0,0,1-.189-2.777q-.02-2.92,0-5.84a15.189,15.189,0,0,1,.181-2.729,3.856,3.856,0,0,1,3.482-3.3,17.97,17.97,0,0,1,2.279-.135q3.149-.017,6.3,0a13.831,13.831,0,0,1,2.49.175,3.857,3.857,0,0,1,3.3,3.5,19.65,19.65,0,0,1,.138,2.493Q304.387,706.112,304.372,709.02Z" transform="translate(-284.166 -695)" fill="#fff"/>
  <path id="Tracé_103" data-name="Tracé 103" d="M344.608,749.674a5.712,5.712,0,1,0,5.71,5.71A5.734,5.734,0,0,0,344.608,749.674Zm-.012,9.413a3.7,3.7,0,1,1,3.71-3.694A3.71,3.71,0,0,1,344.6,759.087Z" transform="translate(-333.484 -744.274)" fill="#fff"/>
  <path id="Tracé_104" data-name="Tracé 104" d="M445.753,735.19a1.318,1.318,0,1,1-1.315-1.312A1.314,1.314,0,0,1,445.753,735.19Z" transform="translate(-427.417 -730.038)" fill="#fff"/>
  <path id="Tracé_105" data-name="Tracé 105" d="M344.608,749.674a5.712,5.712,0,1,0,5.71,5.71A5.734,5.734,0,0,0,344.608,749.674Zm-.012,9.413a3.7,3.7,0,1,1,3.71-3.694A3.71,3.71,0,0,1,344.6,759.087Z" transform="translate(-333.484 -744.274)" fill="#fff"/>
  <path id="Tracé_106" data-name="Tracé 106" d="M445.753,735.19a1.318,1.318,0,1,1-1.315-1.312A1.314,1.314,0,0,1,445.753,735.19Z" transform="translate(-427.417 -730.038)" fill="#fff"/>
</svg>
