<svg id="linkedin" xmlns="http://www.w3.org/2000/svg" width="18.86" height="18.839" viewBox="0 0 18.86 18.839">
  <path id="Tracé_107" data-name="Tracé 107" d="M137.516,762.911a4.231,4.231,0,0,1,2.126-1.776,5.174,5.174,0,0,1,2.464-.208,4.362,4.362,0,0,1,1.915.628,3.919,3.919,0,0,1,1.65,2.574,11.621,11.621,0,0,1,.254,2.7q-.009,3.327,0,6.655c0,.232-.061.313-.3.311q-1.67-.016-3.341,0c-.253,0-.32-.086-.319-.328.008-2.063.014-4.126,0-6.188a7.259,7.259,0,0,0-.16-1.528,1.61,1.61,0,0,0-1.734-1.379,3.369,3.369,0,0,0-.849.079,1.953,1.953,0,0,0-1.447,1.761,7.324,7.324,0,0,0-.1,1.243q-.015,3.008,0,6.016c0,.245-.063.326-.314.324q-1.67-.017-3.341,0c-.25,0-.318-.078-.318-.324q.011-5.98,0-11.959c0-.239.054-.327.312-.323,1.072.014,2.145.013,3.218,0,.231,0,.3.073.29.294C137.507,761.935,137.516,762.385,137.516,762.911Z" transform="translate(-127.067 -754.959)" fill="#fff"/>
  <path id="Tracé_108" data-name="Tracé 108" d="M69.492,770.428q0-2.983,0-5.965c0-.341,0-.341.351-.341,1.1,0,2.21,0,3.315,0,.214,0,.3.045.3.283q-.01,6.014,0,12.029c0,.234-.083.293-.3.291q-1.682-.011-3.364,0c-.231,0-.31-.062-.308-.3C69.5,774.422,69.492,772.425,69.492,770.428Z" transform="translate(-69.195 -757.883)" fill="#fff"/>
  <path id="Tracé_109" data-name="Tracé 109" d="M68.8,705.556a2.278,2.278,0,1,1,2.293-2.251A2.257,2.257,0,0,1,68.8,705.556Z" transform="translate(-66.536 -701)" fill="#fff"/>
</svg>
